# xmcd
#
# Track frame offsets:
#	180
#	11827
#	21712
#	32268
#	43630
#	56569
#	68048
#	78925
#	89407
#	100285
#
# Disc length: 1506 seconds
# Revision: 2
# Processed by: cddbd v1.5.2PL0 Copyright (c) Steve Scherf et al.
# Submitted via: dBpowerAMP V12.0
#
DISCID=7a05e00a
DTITLE=Patsy Cline - Crazy Dreams [Direct Source]
DYEAR=1999
DGENRE=Country
TTITLE0=Walking After Midnight
TTITLE1=I'm Blue Again
TTITLE2=Honky Tonk Merry Go Round
TTITLE3=The Heart You Break May Be Your Own
TTITLE4=Life's Railway to Heaven
TTITLE5=Crazy Dreams
TTITLE6=I Cried All The Way To The Altar
TTITLE7=Lovesick Blues
TTITLE8=There He Goes
TTITLE9=Yes I Understand
EXTD=
EXTT0=
EXTT1=
EXTT2=
EXTT3=
EXTT4=
EXTT5=
EXTT6=
EXTT7=
EXTT8=
EXTT9=
PLAYORDER=
